<svg viewBox="0 0 128 128" xmlns="http://www.w3.org/2000/svg">
    <style>
        @media (prefers-color-scheme: dark) {
        .logo-icon { fill: #f0f0f0 }
        }
    </style>
    <path class="logo-icon"
        d="M101,71.71c-3.7-8-12.85-11.16-12.85-11.16s11.53-5.92,9-17.54c-1.63-7.58-8.5-15.2-21.29-15.39v-11H64.47v11H56.18v-11H44.8v11H30.51V38h6.6a2.7,2.7,0,0,1,2.7,2.7V85.5a3,3,0,0,1-3,3H32.88L30.51,99.67H44.8v11.75H56.18V99.67h8.29v11.75H75.85V99.67h2.2C100.08,99.67,106,82.72,101,71.71ZM67.77,38c5.79,0,11.16,3.73,11.31,9.45S74.49,58.11,68.2,58.19c-5.79.07-12,0-12,0V38S61.7,38,67.77,38Zm3.4,50.47c-6,.11-15,0-15,0v-21s8.31.12,14.51,0c7.46-.12,12.95,3.36,13,9.93S79.26,88.34,71.17,88.49Z" />
</svg>